<svg width="139" height="43" viewBox="0 0 139 43" fill="none" xmlns="http://www.w3.org/2000/svg">
<path fill-rule="evenodd" clip-rule="evenodd" d="M15.7752 9.6969C15.7752 8.76716 16.1445 7.8755 16.8019 7.21808C17.4593 6.56065 18.351 6.19131 19.2807 6.19131H22.7863C23.7161 6.19131 24.6077 6.56065 25.2652 7.21808C25.9226 7.8755 26.2919 8.76716 26.2919 9.6969V16.7081H33.3031C34.2328 16.7081 35.1245 17.0774 35.7819 17.7348C36.4393 18.3923 36.8087 19.2839 36.8087 20.2137V23.7193C36.8087 24.649 36.4393 25.5407 35.7819 26.1981C35.1245 26.8555 34.2328 27.2248 33.3031 27.2248H26.2919V34.236C26.2919 35.1658 25.9226 36.0574 25.2652 36.7148C24.6077 37.3723 23.7161 37.7416 22.7863 37.7416H19.2807C18.351 37.7416 17.4593 37.3723 16.8019 36.7148C16.1445 36.0574 15.7752 35.1658 15.7752 34.236V27.2248H8.76398C7.83424 27.2248 6.94258 26.8555 6.28516 26.1981C5.62773 25.5407 5.25839 24.649 5.25839 23.7193V20.2137C5.25839 19.2839 5.62773 18.3923 6.28516 17.7348C6.94258 17.0774 7.83424 16.7081 8.76398 16.7081H15.7752V9.6969Z" fill="#5A67BA"/>
<path d="M50.584 30.168C49.352 30.168 48.248 29.968 47.272 29.568C46.296 29.168 45.512 28.576 44.92 27.792C44.344 27.008 44.04 26.064 44.008 24.96H48.376C48.44 25.584 48.656 26.064 49.024 26.4C49.392 26.72 49.872 26.88 50.464 26.88C51.072 26.88 51.552 26.744 51.904 26.472C52.256 26.184 52.432 25.792 52.432 25.296C52.432 24.88 52.288 24.536 52 24.264C51.728 23.992 51.384 23.768 50.968 23.592C50.568 23.416 49.992 23.216 49.24 22.992C48.152 22.656 47.264 22.32 46.576 21.984C45.888 21.648 45.296 21.152 44.8 20.496C44.304 19.84 44.056 18.984 44.056 17.928C44.056 16.36 44.624 15.136 45.76 14.256C46.896 13.36 48.376 12.912 50.2 12.912C52.056 12.912 53.552 13.36 54.688 14.256C55.824 15.136 56.432 16.368 56.512 17.952H52.072C52.04 17.408 51.84 16.984 51.472 16.68C51.104 16.36 50.632 16.2 50.056 16.2C49.56 16.2 49.16 16.336 48.856 16.608C48.552 16.864 48.4 17.24 48.4 17.736C48.4 18.28 48.656 18.704 49.168 19.008C49.68 19.312 50.48 19.64 51.568 19.992C52.656 20.36 53.536 20.712 54.208 21.048C54.896 21.384 55.488 21.872 55.984 22.512C56.48 23.152 56.728 23.976 56.728 24.984C56.728 25.944 56.48 26.816 55.984 27.6C55.504 28.384 54.8 29.008 53.872 29.472C52.944 29.936 51.848 30.168 50.584 30.168ZM58.9376 23.28C58.9376 21.904 59.1936 20.696 59.7056 19.656C60.2336 18.616 60.9456 17.816 61.8416 17.256C62.7376 16.696 63.7376 16.416 64.8416 16.416C65.7856 16.416 66.6096 16.608 67.3136 16.992C68.0336 17.376 68.5856 17.88 68.9696 18.504V16.608H73.0736V30H68.9696V28.104C68.5696 28.728 68.0096 29.232 67.2896 29.616C66.5856 30 65.7616 30.192 64.8176 30.192C63.7296 30.192 62.7376 29.912 61.8416 29.352C60.9456 28.776 60.2336 27.968 59.7056 26.928C59.1936 25.872 58.9376 24.656 58.9376 23.28ZM68.9696 23.304C68.9696 22.28 68.6816 21.472 68.1056 20.88C67.5456 20.288 66.8576 19.992 66.0416 19.992C65.2256 19.992 64.5296 20.288 63.9536 20.88C63.3936 21.456 63.1136 22.256 63.1136 23.28C63.1136 24.304 63.3936 25.12 63.9536 25.728C64.5296 26.32 65.2256 26.616 66.0416 26.616C66.8576 26.616 67.5456 26.32 68.1056 25.728C68.6816 25.136 68.9696 24.328 68.9696 23.304ZM89.7667 16.608V30H85.6627V28.176C85.2467 28.768 84.6787 29.248 83.9587 29.616C83.2547 29.968 82.4707 30.144 81.6067 30.144C80.5827 30.144 79.6787 29.92 78.8947 29.472C78.1107 29.008 77.5027 28.344 77.0707 27.48C76.6387 26.616 76.4227 25.6 76.4227 24.432V16.608H80.5027V23.88C80.5027 24.776 80.7347 25.472 81.1987 25.968C81.6627 26.464 82.2867 26.712 83.0707 26.712C83.8707 26.712 84.5027 26.464 84.9667 25.968C85.4307 25.472 85.6627 24.776 85.6627 23.88V16.608H89.7667ZM85.9507 13.272L80.1667 15.696V12.864L85.9507 10.08V13.272ZM92.3986 23.28C92.3986 21.904 92.6546 20.696 93.1666 19.656C93.6946 18.616 94.4066 17.816 95.3026 17.256C96.1986 16.696 97.1986 16.416 98.3026 16.416C99.1826 16.416 99.9826 16.6 100.703 16.968C101.439 17.336 102.015 17.832 102.431 18.456V12.24H106.535V30H102.431V28.08C102.047 28.72 101.495 29.232 100.775 29.616C100.071 30 99.2466 30.192 98.3026 30.192C97.1986 30.192 96.1986 29.912 95.3026 29.352C94.4066 28.776 93.6946 27.968 93.1666 26.928C92.6546 25.872 92.3986 24.656 92.3986 23.28ZM102.431 23.304C102.431 22.28 102.143 21.472 101.567 20.88C101.007 20.288 100.319 19.992 99.5026 19.992C98.6866 19.992 97.9906 20.288 97.4146 20.88C96.8546 21.456 96.5746 22.256 96.5746 23.28C96.5746 24.304 96.8546 25.12 97.4146 25.728C97.9906 26.32 98.6866 26.616 99.5026 26.616C100.319 26.616 101.007 26.32 101.567 25.728C102.143 25.136 102.431 24.328 102.431 23.304ZM122.628 23.088C122.628 23.472 122.604 23.872 122.556 24.288H113.268C113.332 25.12 113.596 25.76 114.06 26.208C114.54 26.64 115.124 26.856 115.812 26.856C116.836 26.856 117.548 26.424 117.948 25.56H122.316C122.092 26.44 121.684 27.232 121.092 27.936C120.516 28.64 119.788 29.192 118.908 29.592C118.028 29.992 117.044 30.192 115.956 30.192C114.644 30.192 113.476 29.912 112.452 29.352C111.428 28.792 110.628 27.992 110.052 26.952C109.476 25.912 109.188 24.696 109.188 23.304C109.188 21.912 109.468 20.696 110.028 19.656C110.604 18.616 111.404 17.816 112.428 17.256C113.452 16.696 114.628 16.416 115.956 16.416C117.252 16.416 118.404 16.688 119.412 17.232C120.42 17.776 121.204 18.552 121.764 19.56C122.34 20.568 122.628 21.744 122.628 23.088ZM118.428 22.008C118.428 21.304 118.188 20.744 117.708 20.328C117.228 19.912 116.628 19.704 115.908 19.704C115.22 19.704 114.636 19.904 114.156 20.304C113.692 20.704 113.404 21.272 113.292 22.008H118.428Z" fill="#5A67BA"/>
</svg>
